PathFileType	4	(X/Y/Z)	C:\Users\Biomechanik\SynologyDrive\AlexP\Athlete_03\Athlete_3_25_03_31\Static_01\marker_experimental.trc
DataRate	CameraRate	NumFrames	NumMarkers	Units	OrigDataRate	OrigDataStartFrame	OrigNumFrames
200.000000	200.000000	4	74	mm	200.000000	93	372
Frame#	Time	BL			BR			GLAB			RFHD			LFHD			C7			T6			SPINMOL			SPINM2			SPINM3			T12			BELTOL			BELT2			BELT3			SACROL			SACR2			SACR3			LASI			RASI			LPSI			RPSI			LTHOL			LTH2			LTH3			LKNEL			LKNEM			LFIB			LSHAOL			LSHA2			LSHA3			LMALL			LMALM			LHEE			LTOE			LM5			RTHOL			RTH2			RTH3			RKNEL			RKNEM			RFIB			RSHAOL			RSHA2			RSHA3			RMALL			RMALM			RHEE			RTOE			RM5			STRN			XIPH			LACR			LUAOL			LUA2			LUA3			LCUBL			LCUBM			LLAOL			LLA2			LLA3			LWRR			LWRU			RACR			RUAOL			RUA2			RUA3			RCUBL			RCUBM			RLAOL			RLA2			RLA3			RWRR			RWRU			*73			
		X1	Y1	Z1	X2	Y2	Z2	X3	Y3	Z3	X4	Y4	Z4	X5	Y5	Z5	X6	Y6	Z6	X7	Y7	Z7	X8	Y8	Z8	X9	Y9	Z9	X10	Y10	Z10	X11	Y11	Z11	X12	Y12	Z12	X13	Y13	Z13	X14	Y14	Z14	X15	Y15	Z15	X16	Y16	Z16	X17	Y17	Z17	X18	Y18	Z18	X19	Y19	Z19	X20	Y20	Z20	X21	Y21	Z21	X22	Y22	Z22	X23	Y23	Z23	X24	Y24	Z24	X25	Y25	Z25	X26	Y26	Z26	X27	Y27	Z27	X28	Y28	Z28	X29	Y29	Z29	X30	Y30	Z30	X31	Y31	Z31	X32	Y32	Z32	X33	Y33	Z33	X34	Y34	Z34	X35	Y35	Z35	X36	Y36	Z36	X37	Y37	Z37	X38	Y38	Z38	X39	Y39	Z39	X40	Y40	Z40	X41	Y41	Z41	X42	Y42	Z42	X43	Y43	Z43	X44	Y44	Z44	X45	Y45	Z45	X46	Y46	Z46	X47	Y47	Z47	X48	Y48	Z48	X49	Y49	Z49	X50	Y50	Z50	X51	Y51	Z51	X52	Y52	Z52	X53	Y53	Z53	X54	Y54	Z54	X55	Y55	Z55	X56	Y56	Z56	X57	Y57	Z57	X58	Y58	Z58	X59	Y59	Z59	X60	Y60	Z60	X61	Y61	Z61	X62	Y62	Z62	X63	Y63	Z63	X64	Y64	Z64	X65	Y65	Z65	X66	Y66	Z66	X67	Y67	Z67	X68	Y68	Z68	X69	Y69	Z69	X70	Y70	Z70	X71	Y71	Z71	X72	Y72	Z72	X73	Y73	Z73	X74	Y74	Z74	

94	0.465	960.7515258789062	36.21282196044934	-1933.517700195312	1063.162109375	32.93233489990234	86.65453338623047	362.3268127441406	1602.429443359375	-1189.170654296875	311.7969360351562	1629.39990234375	-1126.76904296875	321.9834899902344	1629.495483398438	-1262.758666992188	136.7103576660156	1438.99755859375	-1207.648071289062	nan	nan	nan	94.35691070556641	1229.964111328125	-1239.6435546875	88.53844451904297	1220.851318359375	-1190.21630859375	101.4455795288086	1165.537963867188	-1224.815795898438	117.83935546875	1101.957763671875	-1221.741088867188	89.83109283447266	1080.872680664062	-1236.34521484375	89.42795562744141	1077.581787109375	-1185.999267578125	82.88272857666016	1018.052185058594	-1216.02490234375	98.94127655029297	958.2536010742189	-1240.452392578125	99.50655364990234	956.2847290039064	-1189.040283203125	81.14458465576172	898.8515014648439	-1216.428100585938	329.951416015625	935.5061035156251	-1331.910278320312	321.3624572753906	927.0993041992189	-1084.317993164062	111.6071472167969	975.6259155273439	-1259.3056640625	111.9945907592773	966.8793334960939	-1174.767944335938	190.2263793945312	683.3569946289064	-1401.7509765625	141.4778442382812	629.3871459960939	-1368.764770507812	187.7959899902344	623.0841064453126	-1387.587768554688	236.7857055664062	487.4567871093751	-1383.74169921875	254.8019409179688	462.2156372070313	-1264.536254882812	194.2247772216797	425.4212036132813	-1388.869384765625	160.1295623779297	328.3793945312501	-1404.263549804688	110.8054122924805	266.9649353027344	-1391.112426757812	159.7826385498047	266.5231018066407	-1402.37646484375	142.7014617919922	81.26193237304696	-1381.597045898438	183.5290069580078	89.6583786010743	-1295.768798828125	94.92333984375	67.27441406250009	-1318.369750976562	309.8546142578125	47.75514221191415	-1348.646362304688	253.0837097167969	31.14372253417978	-1443.596313476562	157.6694488525391	696.3602905273439	-1025.69775390625	208.3813781738281	638.0157470703126	-1005.72607421875	165.1626281738281	635.1398315429689	-1030.708740234375	199.6543579101562	496.4109191894532	-1026.6748046875	237.9204254150391	464.3058166503907	-1148.169677734375	152.9924926757812	432.5470275878907	-1029.5869140625	118.8041229248047	346.6849060058594	-1019.566162109375	148.5380859375	275.5044250488282	-1004.099060058594	107.2397003173828	286.2587890625001	-1029.703857421875	124.829833984375	85.00671386718756	-1041.767578125	188.9057006835938	95.52509307861335	-1114.610473632812	90.57625579833984	63.36541748046882	-1115.006103515625	292.6662292480469	47.65666580200202	-1043.772705078125	216.4399719238281	39.47426605224615	-964.2320556640625	319.025146484375	1366.080078125	-1202.84375	350.0795593261719	1220.492431640625	-1204.595581054688	197.5181884765625	1435.539672851562	-1353.646240234375	164.4175109863281	1411.162719726562	-1492.329223632812	153.3092651367188	1386.515869140625	-1552.914428710938	197.1710968017578	1414.138427734375	-1549.427612304688	178.5091247558594	1402.206665039062	-1657.090942382812	251.4181671142578	1311.859741210938	-1655.556396484375	176.7960968017578	1377.089721679688	-1747.855590820312	170.0027313232422	1318.016967773438	-1800.881958007812	182.0169830322266	1366.486938476562	-1808.818481445312	195.3860015869141	1357.809326171875	-1913.118530273438	274.4484558105469	1354.441772460938	-1905.466674804688	197.5627746582031	1430.004150390625	-1062.876708984375	154.3840026855469	1412.074462890625	-940.3352050781249	172.0389862060547	1409.149047851562	-876.6905517578124	125.4306793212891	1389.341186523438	-886.6459350585936	147.9519195556641	1391.451782226562	-772.0079345703124	203.9823303222656	1295.919921875	-772.6580810546874	136.5768432617188	1371.41162109375	-673.0714721679686	153.1697235107422	1413.480346679688	-606.9569702148436	135.9835662841797	1365.761596679688	-610.8106079101561	148.0234527587891	1377.169067382812	-518.5667724609374	225.9554290771484	1352.190185546875	-506.3368835449218	96.40493774414062	1266.872192382812	-1217.536010742188	
95	0.47	960.755859375	36.21586227417004	-1933.52197265625	1063.149658203125	32.92837142944335	86.65568542480469	362.4506530761719	1602.378295898438	-1189.137451171875	311.927734375	1629.33642578125	-1126.814331054688	322.08935546875	1629.44677734375	-1262.687622070312	136.7952880859375	1439.014526367188	-1207.609619140625	nan	nan	nan	94.39058685302734	1229.982055664062	-1239.636962890625	88.60353088378906	1220.864624023438	-1190.19091796875	101.5109634399414	1165.5478515625	-1224.802368164062	117.8484649658203	1101.974975585938	-1221.713256835938	89.89188385009766	1080.9033203125	-1236.309204101562	89.47722625732422	1077.606567382812	-1185.983032226562	83.016357421875	1018.069152832031	-1215.935791015625	98.96971893310547	958.2608032226564	-1240.435180664062	99.55660247802734	956.2857666015626	-1189.041015625	81.19453430175781	898.8420410156251	-1216.392944335938	329.9853820800781	935.4995727539064	-1331.896606445312	321.2455749511719	926.9077148437501	-1084.522705078125	111.8039245605469	975.7862548828126	-1259.192749023438	112.0323638916016	966.8838500976564	-1174.755981445312	190.7546539306641	683.0001831054689	-1401.201293945312	141.5084686279297	629.4088134765626	-1368.751098632812	187.8102569580078	623.1004028320314	-1387.559692382812	236.7960815429688	487.4558410644532	-1383.703979492188	254.8055267333984	462.2154541015626	-1264.521118164062	194.231689453125	425.4233093261719	-1388.855590820312	160.1198120117188	328.3806152343751	-1404.263671875	110.8132553100586	266.9721984863282	-1391.101196289062	159.77294921875	266.5543212890626	-1402.373779296875	142.7000885009766	81.27941894531259	-1381.584350585938	183.5344390869141	89.65707397460946	-1295.760131835938	94.92229461669922	67.28057861328134	-1318.376708984375	309.8569030761719	47.75645828247079	-1348.631103515625	253.0898132324219	31.14585685729989	-1443.589721679688	157.6886444091797	696.3814086914064	-1025.70166015625	208.4035797119141	638.0190429687501	-1005.724792480469	165.1900024414062	635.1410522460939	-1030.704345703125	199.6675262451172	496.4075317382813	-1026.663330078125	237.9439544677734	464.2681579589844	-1148.175048828125	152.9947967529297	432.5463256835938	-1029.595092773438	118.8109359741211	346.6891174316407	-1019.563415527344	148.5396118164062	275.5084228515626	-1004.106994628906	107.2439804077148	286.2649230957032	-1029.697998046875	124.819953918457	85.00998687744146	-1041.763427734375	188.8705596923828	95.59384918212898	-1114.601318359375	90.54102325439453	63.40005111694343	-1115.016723632812	292.6666564941406	47.64414215087897	-1043.772827148438	216.4341888427734	39.46184921264654	-964.2557373046875	319.0968933105469	1366.057495117188	-1202.800415039062	350.1397094726562	1220.441040039062	-1204.575561523438	197.5854644775391	1435.540283203125	-1353.608764648438	164.5075988769531	1411.193969726562	-1492.306396484375	153.3869476318359	1386.527587890625	-1552.830932617188	196.9131164550781	1414.166870117188	-1549.651000976562	178.6111755371094	1402.247314453125	-1657.054931640625	251.4820556640625	1311.932983398438	-1655.52978515625	176.9407806396484	1377.140869140625	-1747.799438476562	170.1057281494141	1318.0654296875	-1800.854614257812	182.1005096435547	1366.53515625	-1808.78369140625	195.4439544677734	1357.8427734375	-1913.099243164062	274.54150390625	1354.503295898438	-1905.443603515625	197.6565551757812	1429.987182617188	-1062.840576171875	154.4564514160156	1412.0390625	-940.3090209960936	172.1085510253906	1409.14013671875	-876.6589965820311	125.4816131591797	1389.22900390625	-886.5461425781249	148.0418090820312	1391.425048828125	-771.9801025390624	204.0382690429688	1295.937255859375	-772.6444702148436	136.6733703613281	1371.378540039062	-673.0388793945311	153.2061462402344	1413.303344726562	-606.9674072265624	136.0940704345703	1365.72705078125	-610.7739868164061	148.1546325683594	1377.120361328125	-518.5349121093749	226.0738525390625	1352.128295898438	-506.3218383789062	96.46260833740234	1266.891235351562	-1217.50390625	
96	0.475	960.7521362304688	36.22710800170911	-1933.512084960938	1063.143432617188	32.91571426391601	86.63644409179688	362.5801086425781	1602.3466796875	-1189.104248046875	312.0549621582031	1629.287841796875	-1126.785400390625	322.2116394042969	1629.40966796875	-1262.651000976562	136.9080200195312	1439.030029296875	-1207.574584960938	nan	nan	nan	94.463134765625	1229.998046875	-1239.607788085938	88.67415618896484	1220.870971679688	-1190.179321289062	101.5549011230469	1165.559204101562	-1224.789916992188	117.8896484375	1101.991821289062	-1221.69970703125	89.95315551757812	1080.892211914062	-1236.285888671875	89.52422332763672	1077.62451171875	-1185.972290039062	82.98117065429688	1018.077575683594	-1215.96337890625	99.02159881591797	958.2838745117189	-1240.423461914062	99.60084533691406	956.2968139648439	-1189.002075195312	81.24039459228516	898.8646850585939	-1216.381103515625	330.0229797363281	935.4963378906251	-1331.879516601562	321.5088806152344	927.0726318359376	-1084.243530273438	111.3927764892578	975.7147827148439	-1259.298583984375	112.0695724487305	966.8970336914064	-1174.726806640625	190.772216796875	683.0782470703126	-1401.167846679688	141.5133209228516	629.4210815429689	-1368.735229492188	187.8126373291016	623.1161499023439	-1387.568481445312	236.7904052734375	487.5035705566407	-1383.901000976562	254.8016052246094	462.2146911621094	-1264.513671875	194.2347106933594	425.4257812500001	-1388.860473632812	160.1199493408203	328.3931884765626	-1404.258056640625	110.8108825683594	266.9773559570313	-1391.10546875	159.7944183349609	266.5253295898439	-1402.378051757812	142.7232055664062	81.26492309570321	-1381.605224609375	183.5395202636719	89.65468597412118	-1295.766479492188	94.92693328857422	67.27702331542977	-1318.371826171875	309.8527526855469	47.75986480712899	-1348.634521484375	253.0813598632812	31.15171241760263	-1443.596069335938	157.6894989013672	696.3685302734376	-1025.683959960938	208.4303588867188	638.0143432617189	-1005.727905273438	165.2068939208984	635.1400146484376	-1030.691650390625	199.6865234375	496.3986511230469	-1026.66064453125	237.9503021240234	464.2636718750001	-1148.17626953125	153.0097351074219	432.5452575683594	-1029.586669921875	118.809684753418	346.6883239746094	-1019.558288574219	148.5524444580078	275.5165710449219	-1004.102905273438	107.2488021850586	286.2696228027344	-1029.685791015625	124.8358383178711	85.00032043457037	-1041.780029296875	188.9263305664062	95.49191284179695	-1114.587768554688	90.61284637451172	63.33428955078132	-1115.004150390625	292.6737976074219	47.64788818359381	-1043.764892578125	216.4413909912109	39.46697998046881	-964.2405395507812	319.1683959960938	1366.040283203125	-1202.78662109375	350.1914367675781	1220.412109375	-1204.560913085938	197.6844940185547	1435.55517578125	-1353.56689453125	164.5935211181641	1411.218383789062	-1492.244018554688	153.4954681396484	1386.608520507812	-1552.791870117188	197.3037109375	1414.277465820312	-1549.363403320312	178.7267456054688	1402.286743164062	-1657.042114257812	251.5814056396484	1311.991577148438	-1655.524047851562	177.0552215576172	1377.195922851562	-1747.727416992188	170.2584381103516	1318.118408203125	-1800.81982421875	182.1875762939453	1366.587036132812	-1808.765014648438	195.4355621337891	1357.879150390625	-1913.11669921875	274.63818359375	1354.576171875	-1905.42431640625	197.7277679443359	1429.985961914062	-1062.818603515625	154.5526275634766	1412.027587890625	-940.2930297851561	172.2063751220703	1409.114501953125	-876.5939941406249	125.566535949707	1389.220336914062	-886.5091552734374	148.1473236083984	1391.406616210938	-771.9411010742186	204.2799530029297	1295.961669921875	-772.4757690429686	136.7763824462891	1371.351196289062	-673.0092163085936	153.4886474609375	1413.316650390625	-607.0227050781249	136.1914978027344	1365.698852539062	-610.7399902343749	148.2712097167969	1377.0703125	-518.4951171874999	226.2073211669922	1352.037475585938	-506.3133544921874	96.46847534179688	1266.921997070312	-1217.48095703125	
97	0.48	960.75341796875	36.24103164672864	-1933.515625	1063.1513671875	32.92201995849609	86.63849639892578	362.6891479492188	1602.320922851562	-1189.061767578125	312.1831970214844	1629.260864257812	-1126.71337890625	322.3359069824219	1629.362548828125	-1262.590576171875	137.0341949462891	1439.040893554688	-1207.52294921875	nan	nan	nan	94.68832397460938	1229.929077148438	-1239.593994140625	88.73228454589844	1220.890991210938	-1190.158447265625	101.6149978637695	1165.566284179688	-1224.784301757812	117.9436264038086	1102.009887695312	-1221.680908203125	90.01110076904297	1080.940795898438	-1236.259643554688	89.57716369628906	1077.638916015625	-1185.952270507812	83.03213500976562	1018.080017089844	-1215.9453125	99.03365325927734	958.2926635742189	-1240.404418945312	99.63387298583984	956.3098754882814	-1189.001342773438	81.26875305175781	898.8704833984376	-1216.368408203125	330.0576477050781	935.4969482421876	-1331.860107421875	321.3832092285156	926.9030151367189	-1084.47412109375	111.431755065918	975.7272949218751	-1259.27099609375	112.12060546875	966.9055786132814	-1174.716918945312	190.5037231445312	683.4007568359376	-1401.351440429688	141.5343017578125	629.4337158203126	-1368.71240234375	187.8295593261719	623.1145629882814	-1387.552612304688	236.7734222412109	487.5244750976563	-1383.869750976562	254.7971649169922	462.1989135742188	-1264.524780273438	194.2400665283203	425.4317321777344	-1388.845458984375	160.1465606689453	328.3887634277345	-1404.261474609375	110.805061340332	266.9960632324219	-1391.114868164062	159.803466796875	266.5233154296876	-1402.369506835938	142.72607421875	81.2726364135743	-1381.601928710938	183.5471649169922	89.65385437011727	-1295.7568359375	94.92996215820312	67.28415679931649	-1318.371215820312	309.8638610839844	47.75167083740243	-1348.624877929688	253.0810546875	31.17812156677255	-1443.600708007812	157.7225036621094	696.3550415039064	-1025.6708984375	208.4772644042969	638.0146484375001	-1005.725402832031	165.2399749755859	635.1391601562501	-1030.677001953125	199.6996307373047	496.3937988281251	-1026.65087890625	237.9658203125	464.2838134765626	-1148.173950195312	153.0163116455078	432.5466308593751	-1029.572143554688	118.8191986083984	346.6995849609376	-1019.553588867188	148.5532836914062	275.5206298828126	-1004.098999023438	107.2569351196289	286.2684326171876	-1029.692504882812	124.8266372680664	85.00809478759771	-1041.769775390625	188.8840026855469	95.53576660156257	-1114.598510742188	90.59047698974609	63.36595916748054	-1115.00048828125	292.6736450195312	47.63841629028327	-1043.76416015625	216.4442443847656	39.43808746337896	-964.2640991210938	319.2366333007812	1366.039428710938	-1202.768920898438	350.2457580566406	1220.415161132812	-1204.541259765625	197.76318359375	1435.569580078125	-1353.525390625	164.7029571533203	1411.261352539062	-1492.185668945312	153.5391387939453	1386.510620117188	-1552.673461914062	197.0734710693359	1414.284912109375	-1549.557006835938	178.7975311279297	1402.365966796875	-1656.9658203125	251.6698608398438	1312.02783203125	-1655.49267578125	177.1367492675781	1377.248046875	-1747.720703125	170.3798522949219	1318.185668945312	-1800.775268554688	182.2948608398438	1366.630981445312	-1808.710327148438	195.5130157470703	1357.918701171875	-1913.090209960938	274.7286071777344	1354.633422851563	-1905.38330078125	197.8136901855469	1429.98193359375	-1062.784057617188	154.6403961181641	1412.008056640625	-940.2691040039061	172.2921600341797	1409.111938476562	-876.5869140624999	125.6797943115234	1389.200317382812	-886.4581298828124	148.2576446533203	1391.385009765625	-771.9040527343749	204.3314208984375	1295.923583984375	-772.4971313476561	136.8839569091797	1371.321533203125	-672.9727783203124	153.7008361816406	1413.487426757812	-606.8912963867186	136.3342742919922	1365.6708984375	-610.7006225585936	148.4095458984375	1377.017944335938	-518.4501953124999	226.3357086181641	1351.968994140625	-506.3101196289062	96.51609039306641	1266.941040039062	-1217.453369140625	
